<svg width="167" height="24" viewBox="0 0 167 24" fill="none" xmlns="http://www.w3.org/2000/svg">
<path d="M10 1H3V13H10V1Z" fill="#2563EB" stroke="#2563EB" stroke-width="2" stroke-miterlimit="10" stroke-linecap="round" stroke-linejoin="round"/>
<path d="M10 17H3V23H10V17Z" fill="#2563EB" stroke="#2563EB" stroke-width="2" stroke-miterlimit="10" stroke-linecap="round" stroke-linejoin="round"/>
<path d="M21 1H14V7H21V1Z" fill="#2563EB" stroke="#2563EB" stroke-width="2" stroke-miterlimit="10" stroke-linecap="round" stroke-linejoin="round"/>
<path d="M21 11H14V23H21V11Z" fill="#2563EB" stroke="#2563EB" stroke-width="2" stroke-miterlimit="10" stroke-linecap="round" stroke-linejoin="round"/>
<path d="M166.597 6.36365V18H164.137V6.36365H166.597Z" fill="white"/>
<path d="M153.777 18V6.36365H158.368C159.251 6.36365 160.003 6.53221 160.624 6.86933C161.245 7.20266 161.719 7.66668 162.044 8.26137C162.374 8.85228 162.539 9.5341 162.539 10.3068C162.539 11.0796 162.372 11.7614 162.039 12.3523C161.705 12.9432 161.222 13.4034 160.59 13.733C159.961 14.0625 159.2 14.2273 158.306 14.2273H155.38V12.2557H157.908C158.382 12.2557 158.772 12.1743 159.078 12.0114C159.389 11.8447 159.62 11.6155 159.772 11.3239C159.927 11.0284 160.005 10.6894 160.005 10.3068C160.005 9.92047 159.927 9.58334 159.772 9.29547C159.62 9.0038 159.389 8.77842 159.078 8.61933C158.768 8.45645 158.374 8.37501 157.897 8.37501H156.238V18H153.777Z" fill="white"/>
<path d="M143.814 18H141.178L145.195 6.36365H148.365L152.377 18H149.74L146.825 9.02274H146.735L143.814 18ZM143.649 13.4261H149.877V15.3466H143.649V13.4261Z" fill="white"/>
<path d="M136.073 6.36365V18H133.948L128.885 10.6761H128.8V18H126.34V6.36365H128.499L133.522 13.6818H133.624V6.36365H136.073Z" fill="white"/>
<path d="M124.518 12.1819C124.518 13.4508 124.277 14.5303 123.796 15.4205C123.319 16.3107 122.667 16.9906 121.842 17.4603C121.02 17.9262 120.096 18.1591 119.069 18.1591C118.035 18.1591 117.107 17.9243 116.285 17.4546C115.463 16.9849 114.813 16.305 114.336 15.4148C113.859 14.5247 113.62 13.447 113.62 12.1819C113.62 10.9129 113.859 9.83338 114.336 8.94323C114.813 8.05307 115.463 7.37504 116.285 6.90914C117.107 6.43944 118.035 6.20459 119.069 6.20459C120.096 6.20459 121.02 6.43944 121.842 6.90914C122.667 7.37504 123.319 8.05307 123.796 8.94323C124.277 9.83338 124.518 10.9129 124.518 12.1819ZM122.024 12.1819C122.024 11.3599 121.9 10.6667 121.654 10.1023C121.412 9.53792 121.069 9.10989 120.626 8.81823C120.183 8.52656 119.664 8.38073 119.069 8.38073C118.474 8.38073 117.955 8.52656 117.512 8.81823C117.069 9.10989 116.724 9.53792 116.478 10.1023C116.236 10.6667 116.114 11.3599 116.114 12.1819C116.114 13.0038 116.236 13.697 116.478 14.2614C116.724 14.8258 117.069 15.2538 117.512 15.5455C117.955 15.8372 118.474 15.983 119.069 15.983C119.664 15.983 120.183 15.8372 120.626 15.5455C121.069 15.2538 121.412 14.8258 121.654 14.2614C121.9 13.697 122.024 13.0038 122.024 12.1819Z" fill="white"/>
<path d="M111.8 6.36365V18H109.34V6.36365H111.8Z" fill="white"/>
<path d="M98.209 8.39206V6.36365H107.766V8.39206H104.203V18H101.771V8.39206H98.209Z" fill="white"/>
<path d="M90.111 18H87.4746L91.4917 6.36365H94.6621L98.6735 18H96.0371L93.1223 9.02274H93.0314L90.111 18ZM89.9462 13.4261H96.1735V15.3466H89.9462V13.4261Z" fill="white"/>
<path d="M77.6055 18V6.36365H82.1964C83.0752 6.36365 83.8252 6.52084 84.4464 6.83524C85.0714 7.14584 85.5468 7.58713 85.8725 8.1591C86.2021 8.72728 86.3668 9.39584 86.3668 10.1648C86.3668 10.9375 86.2002 11.6023 85.8668 12.1591C85.5335 12.7121 85.0505 13.1364 84.418 13.4318C83.7892 13.7273 83.0278 13.875 82.1339 13.875H79.06V11.8977H81.7361C82.2058 11.8977 82.596 11.8333 82.9066 11.7046C83.2172 11.5758 83.4483 11.3826 83.5998 11.125C83.7551 10.8674 83.8327 10.5474 83.8327 10.1648C83.8327 9.77842 83.7551 9.45266 83.5998 9.18751C83.4483 8.92236 83.2153 8.7216 82.9009 8.58524C82.5903 8.44509 82.1983 8.37501 81.7248 8.37501H80.0657V18H77.6055ZM83.8896 12.7046L86.7816 18H84.0657L81.2361 12.7046H83.8896Z" fill="white"/>
<path d="M67.8086 18V6.36365H75.6495V8.39206H70.2688V11.1648H75.2461V13.1932H70.2688V15.9716H75.6722V18H67.8086Z" fill="white"/>
<path d="M60.293 18H56.168V6.36365H60.3271C61.4975 6.36365 62.5051 6.5966 63.3498 7.06251C64.1945 7.52463 64.8441 8.1894 65.2986 9.05683C65.757 9.92425 65.9861 10.9621 65.9861 12.1705C65.9861 13.3826 65.757 14.4243 65.2986 15.2955C64.8441 16.1667 64.1907 16.8352 63.3384 17.3011C62.4899 17.7671 61.4748 18 60.293 18ZM58.6282 15.8921H60.1907C60.918 15.8921 61.5297 15.7633 62.0259 15.5057C62.5259 15.2443 62.9009 14.8409 63.1509 14.2955C63.4047 13.7462 63.5316 13.0379 63.5316 12.1705C63.5316 11.3106 63.4047 10.608 63.1509 10.0625C62.9009 9.51706 62.5278 9.11554 62.0316 8.85797C61.5354 8.60039 60.9236 8.4716 60.1964 8.4716H58.6282V15.8921Z" fill="white"/>
<path d="M54.346 12.1819C54.346 13.4508 54.1054 14.5303 53.6244 15.4205C53.1471 16.3107 52.4956 16.9906 51.6698 17.4603C50.8479 17.9262 49.9236 18.1591 48.8971 18.1591C47.863 18.1591 46.935 17.9243 46.113 17.4546C45.291 16.9849 44.6414 16.305 44.1642 15.4148C43.6869 14.5247 43.4482 13.447 43.4482 12.1819C43.4482 10.9129 43.6869 9.83338 44.1642 8.94323C44.6414 8.05307 45.291 7.37504 46.113 6.90914C46.935 6.43944 47.863 6.20459 48.8971 6.20459C49.9236 6.20459 50.8479 6.43944 51.6698 6.90914C52.4956 7.37504 53.1471 8.05307 53.6244 8.94323C54.1054 9.83338 54.346 10.9129 54.346 12.1819ZM51.8517 12.1819C51.8517 11.3599 51.7285 10.6667 51.4823 10.1023C51.2399 9.53792 50.8971 9.10989 50.4539 8.81823C50.0107 8.52656 49.4918 8.38073 48.8971 8.38073C48.3024 8.38073 47.7835 8.52656 47.3403 8.81823C46.8971 9.10989 46.5524 9.53792 46.3062 10.1023C46.0638 10.6667 45.9426 11.3599 45.9426 12.1819C45.9426 13.0038 46.0638 13.697 46.3062 14.2614C46.5524 14.8258 46.8971 15.2538 47.3403 15.5455C47.7835 15.8372 48.3024 15.983 48.8971 15.983C49.4918 15.983 50.0107 15.8372 50.4539 15.5455C50.8971 15.2538 51.2399 14.8258 51.4823 14.2614C51.7285 13.697 51.8517 13.0038 51.8517 12.1819Z" fill="white"/>
<path d="M29.0117 6.36365H32.0458L35.2504 14.1818H35.3867L38.5913 6.36365H41.6254V18H39.239V10.4261H39.1424L36.131 17.9432H34.506L31.4947 10.3977H31.3981V18H29.0117V6.36365Z" fill="white"/>
</svg>
